<svg version="1.0" id="Capa_1" xmlns="http://www.w3.org/2000/svg" xmlns:xlink="http://www.w3.org/1999/xlink" x="0px" y="0px" width="1200px" height="1200px" viewBox="0 0 1200 1200" enable-background="new 0 0 1200 1200" xml:space="preserve">
<g>
	<path fill="#B0206B" d="M1093.008,600.003c0,272.279-220.725,493.008-493.01,493.008c-272.281,0-493.006-220.729-493.006-493.008&#10;&#9;&#9;c0-272.283,220.725-493.013,493.006-493.013C872.283,106.989,1093.008,327.719,1093.008,600.003z" style="fill: rgb(0, 0, 0);"/>
	<g>
		<path fill="#FFFFFF" d="M362.445,791.944c-10.158,21.012-3.648,46.138-1.168,53.969h481.795&#10;&#9;&#9;&#9;c-0.188-47.822-4.225-84.283-43.33-88.198c-137.506-20.821-140.355-78.216-141.564-102.706c-0.107-2.153-0.191-4.025-0.381-5.461&#10;&#9;&#9;&#9;l-0.336-2.593l2.279-1.265c42.262-23.224,59.666-120.117,60.73-126.291c-0.072-105.047-45.826-165.311-125.531-165.311&#10;&#9;&#9;&#9;c-81.363,0-129.932,56.92-129.932,152.24c0,106.068,62.666,135.081,63.291,135.386l2.291,0.996v2.508&#10;&#9;&#9;&#9;c0,77.745-70.631,99.672-132.963,119.009C380.613,769.491,368.777,778.814,362.445,791.944z"/>
	</g>
	<path opacity="0.1" fill="#231F20" d="M1062.467,771.271c-68.602,185.134-245.199,317.831-453.256,321.666l-247.018-247.02h480.875&#10;&#9;&#9;c-0.197-47.815-4.225-84.289-43.309-88.201c-137.518-20.825-140.361-78.203-141.586-102.704c-0.117-2.173-0.199-4.031-0.398-5.453&#10;&#9;&#9;l-0.314-2.609l2.293-1.264c42.244-23.236,59.672-120.13,60.738-126.295c-0.041-55.799-12.965-98.95-37.068-127.165&#10;&#9;&#9;L1062.467,771.271z" style="fill: rgb(0, 0, 0);"/>
	<path opacity="0.05" fill="#231F20" d="M843.068,845.917H599.055V354.133c28.809,0.79,53.033,9.602,72.08,25.804l12.289,12.29&#10;&#9;&#9;c24.104,28.215,37.027,71.366,37.068,127.165c-1.066,6.165-18.494,103.059-60.738,126.295l-2.293,1.264l0.314,2.609&#10;&#9;&#9;c0.199,1.422,0.281,3.28,0.398,5.453c1.225,24.501,4.068,81.879,141.586,102.704C838.844,761.628,842.871,798.102,843.068,845.917z&#10;&#9;&#9;" style="fill: rgb(0, 0, 0);"/>
	<line fill="none" x1="599.055" y1="354.133" x2="599.055" y2="353.974"/>
	<line fill="none" x1="599.055" y1="846.115" x2="599.055" y2="845.917"/>
</g>
</svg>